<svg xmlns="http://www.w3.org/2000/svg" width="1800" height="1800" viewBox="0 0 1800 1800">
  <defs>
    <style>
      .cls-1 {
        fill: #a5a5a5;
      }

      .cls-1, .cls-10, .cls-2, .cls-3, .cls-4, .cls-5, .cls-6, .cls-7, .cls-8, .cls-9 {
        fill-rule: evenodd;
      }

      .cls-2 {
        fill: #9edab7;
      }

      .cls-3, .cls-6 {
        fill: #fff;
      }

      .cls-10, .cls-3 {
        opacity: 0.25;
      }

      .cls-4 {
        fill: #f7e8d5;
      }

      .cls-5 {
        fill: #9a3232;
      }

      .cls-7 {
        fill: #bc6b6b;
      }

      .cls-8 {
        fill: #995739;
      }
    </style>
  </defs>
  <path id="Color_Fill_7" data-name="Color Fill 7" class="cls-1" d="M970,1186l123,3c22.88,0,44.94-5.48,59,5v2c6.23,20.75-12.82,24.23-22,35-21.72,25.47-35.31,23.61-76,30-40.5,6.36-81.481-6.5-124,0-65.492,10.01-163.615,10.78-224,1-15.162-2.46-33.254,2.34-48,0q0.5-1.5,1-3c34.071-33.72,77.877-60.6,136-70Z"/>
  <path id="Color_Fill_6" data-name="Color Fill 6" class="cls-2" d="M851,212c75.3-.854,132.783,61.664,155,116,9.58,23.437,21.41,60.478,5,86-36.584,56.907-173.867,76.212-257,91-21.01,3.737-72.785,14.8-92,10L575,307c9.492-9.547,22.9-13.931,35-21,49.177-28.733,108.351-47.948,171-64l39-8Zm283,45c15.06,0.776,20.28,7.719,31,12,54.79,21.873,95.02,55.143,137,89l94,80q30,51,60,102c8.29,13.163,24.75,25.851,31,39,16.72,35.168,21.59,81.876,31,123q11.505,37,23,74-0.495,14-1,28c0.02,23.831.74,46.037-3,69-6.42,39.484,1.69,78.485-6,113-7.26,32.57-23.03,60.87-35,89q-13.995,39-28,78c-9.65,23.38-22.23,32.12-35,50-7.97,11.15-13.73,26.34-25,34-7.49,5.09-21.25,6.01-33,3-49.67-12.73-112.31-74.64-127-124q-6.495-27.495-13-55c-5.62-28.49,5.13-41.66-14-60-17.25,8.65-42.25,8.9-63,13q-7.995-230.977-16-462-0.495-30-1-60-4.995-116.988-10-234h1c1.61,3.13.91,2.354,4,4C1135.33,260.334,1134.67,258.666,1134,257Zm1,8c1.33,2,2.67,4,4,6C1137.67,269,1136.33,267,1135,265ZM379,484c25.024,0.749,96.04.922,113,11,7.393,16.755,22.6,20.644,27,43,8.9,45.226-7.133,95.49,3,136,12.871,51.453,28.228,99.839,43,149l16,76c14.605,49.2,30.254,145.39,13,206-7.387,25.95-36.745,44.74-56,60q-14.5,15.495-29,31c-12.132,9.6-24.475,18.91-34,31-15.164,19.25-27.883,41.77-49,55-44.815-26.91-86.068-106.38-107-160l-25-55c-14.967-38.2-22.771-84.255-31-127-23.437-121.747,12.939-247.557,48-333l27-73C349.334,514.727,365.425,500.6,379,484Z"/>
  <path id="Color_Fill_9" data-name="Color Fill 9" class="cls-3" d="M894,158c55.088-1.245,138.54,22.16,171,44q24.99,20.5,50,41,20.505,10,41,20,19.005,5.5,38,11,6.495,6.5,13,13,16.995,8.5,34,17,13.005,13,26,26l34,14q16.995,19,34,38l42,33c11.24,8.614,17.2,25.884,25,38q13.005,16,26,32,18.495,33.5,37,67c4.55,7.608,13.77,17.566,14,26l-67,30c-69.46,30.516-134.48,66.16-202,96-97.65,43.157-194.65,92.137-285,145L634,999q-107.99,54.99-216,110c-15.91,8.1-68.605,41.23-83,40-5.4-20.67-19.111-37.67-28-55-15.613-30.44-31.451-63.24-40-99-12.028-50.314-18.018-169.3-6-226,9.719-45.847,26.284-90.7,42-131,24.273-62.239,42.269-112.609,79-161-35.6-81.82,51.547-114.134,108-136,76.2-29.514,142.789-81.106,223-104,42.293-12.071,88.5-15.46,135-22C852.808,175.264,861.941,170.809,894,158Z"/>
  <path id="Color_Fill_3" data-name="Color Fill 3" class="cls-4" d="M897,163c172.8-1.341,260.29,111.16,304,239,5.81,17,1.13,41.651,5,62q5.505,15,11,30c2.98,14.266-8.48,19.492-5,35,12.19,54.321,21.85,117.485,32,173q6,67.993,12,136c7.82,64.39-47.69,95.488-33,144,2.93,9.684,12.45,53.91,17,61l45,27c35.49,23.96,67.71,43.91,94,77,9.3,11.7,47.57,56.71,44,76-7.04,38.08-39.49,58.72-65,79l-44,47-63,39c-27.12,16.87-51.84,37.08-88,45,0.42-36.73.2-74.44-5-108q-1.005-39.99-2-80c-2.73-17.58,1.41-46.17-10-55-11.94-6.09-44.21-1.99-62-2-38.36-.01-77.19,1.4-114-4-24.5-3.59-45.958,9.49-66-2q0.5-1.5,1-3c15.229-7.69,35.792-14.94,47-27-1.333-.33-2.667-0.67-4-1-57.9,21.69-85.5,36.86-157,19v5c-2.333-1.33-4.667-2.67-7-4-13.023,14.83-38.427,19.74-57,29-24.56,12.25-47.641,34.33-68,52q-3,46.995-6,94v59c-1.927,12.77,4.319,33.61-4,40-27.886-7.81-45.175-23.01-66-37-37.733-25.35-77.4-44.63-107-78-12.618-14.23-38.632-23.43-41-47,34.45-41.13,66.163-84.32,104-122,15.56-15.5,44.533-22.94,54-44,3.913-8.71,19.533-84.76,18-91-9.423-23.48-35.828-38.157-50-58-30.9-43.264-64.542-136.276-52-214V703c4.924-31.569,5.161-78.655,0-110-2.192-13.311.012-41.223-9-48l-38-10c-12.624-5.039-22.472-15-33-22-27.049-17.987-53.576-21.873-61-60-9.374-48.142,42.674-64.01,68-80,37.891-23.923,85.482-48.817,137-57,24.726-3.927,44.522,6.741,60,13l40,12c24.789,10.156,43.268,32.145,62,49l-5,6,37-9c36.227-6.673,74.7-3.289,111-9,28.63-4.5,54.345,1.236,76-9v-1c-6.765-21.746-26.749-31.679-43-44-24.91-18.886-90.265-112.82-44-151C875.093,166.321,886,167.288,897,163Z"/>
  <path id="Color_Fill_5" data-name="Color Fill 5" class="cls-5" d="M1215,958h2c7.71,7.911,9.56,20.723,15,31,18.94,35.78,6.91,81.75-21,99l-48,18c-27.18,11.39-57.61,24.99-96,25v-1q24-40.995,48-82,5.505-15.495,11-31,13.5-8,27-16,16.005-14,32-28ZM663,1155c-22.778-.35-57.705-10.25-70-23a258.118,258.118,0,0,1,16-91c13.017,0.07,25.449,6.03,32,13-1.333-.33-2.667-0.67-4-1C638.356,1091.3,659.682,1117.49,663,1155Z"/>
  <path id="Color_Fill_10" data-name="Color Fill 10" class="cls-6" d="M660,1262q115.488,1.995,231,4c34.667,5.14,107.02,6.59,134-2,23.25-7.4,51.64.29,74-7,11.01-3.59,11.87-15.08,20-21q13.5-7.995,27-16c1.33,2.33,2.67,4.67,4,7,1.01-6.32,1.34-4.64,5-4,6.67,45.1,6.9,104.06,0,150-6.42,42.75-2.34,92.71,2,129q-3,13.995-6,28,0.495,27,1,54c-20.4,9.42-16.67,35.78-45,45l-48,3c-55.52,8.38-122.4.53-178,0-61.911-.59-119.933,11.8-180,4-15.257-1.98-27.261,3.32-41,0-12.434-26.32-10.489-84.63-5-120C667.059,1438.29,662.529,1343.52,660,1262Z"/>
  <path id="Color_Fill_4" data-name="Color Fill 4" class="cls-7" d="M879,779c11.87,0.772,17.781,6.757,27,9l21,2c19.234,8.5,24.466,34.227,29,58,1.807,9.473,4.226,26.974-1,35-20.694,31.78-64.421,31.616-98,51,4.127,31.853,7.93,76.27,15,104,3.092,12.13,9.888,29.51,5,39-13.726,2.4-24.115,5.95-42,6,14.031-29.64,23.168-112.467,15-155l-7-6c-18.049-6.724-41.77.715-56-8-26.484-16.221-34.952-89.166-7-110,14.325-10.677,44.083-18.276,63-22Z"/>
  <path id="Color_Fill_2" data-name="Color Fill 2" class="cls-8" d="M900,158c79.153-.715,126.46,22.529,171,55,24.83,18.1,48.62,36.523,70,58,14.52,14.58,27.99,57.278,36,79,33.36,90.474,51.35,207.136,71,310,8.42,44.1,7.4,95.209,6,146-0.35,12.573-7.59,48.489-5,53l9,11c-0.29,7.777-2.11,8.312-6,12-15.29-.5-15.87-7.6-25-13-15.29-9.045-30.46-19.219-42-32-10.6-11.742-17.56-30.514-35-35-62.43-16.054-84.45,67.63-132,49-23.008-9.015-31.9-34.743-47-52l-66-54c-23.342-25.726-37.619-59.364-64-82-41.6-35.7-118.185-40.093-140-95-11.428-28.764-12.089-125.581-4-160l5-4c32.239,1.507,64.472-12.688,100-20,46.1-9.488,97.624-11.722,150-12-4.482-15.97-29.748-33.746-41-45-22.273-22.275-68.071-108.706-52-151C866.045,161.84,885.655,165.032,900,158ZM510,772c48.451,4.965,80.073,14.522,90,58,5.152,22.564,4.454,42.794,13,61,8.742,18.623,26.119,30.579,34,49,6.064,14.173,14.809,83.24-1,93-24.356,15.04-50.335-19.14-61-30-37.568-38.242-54.6-84.257-67-149q-1.5-29-3-58c-13.015-5-18.163-11.48-9-23Zm732,292c32.94-.48,45.29,18.34,63,33,38.16,31.59,101,61.14,113,117,8.13,37.82-38.18,74.2-55,91-6.82,6.81-17.33,24.27-33,18-12.49-6.01-13.45-70.28-19-87-16.59-50.04-46.23-81.2-74-119-6.38-8.69-30.11-25.77-26-39,1.67-2,3.33-4,5-6l15,3Zm-650,64c2,0.33,4,.67,6,1,13.871,6.37,14,57.23,14,80,0,52.42-1.058,101.05-10,143-5.142,24.12-6.585,56.1-42,48-22.493-5.15-40.28-24.85-57-37-18.072-13.13-48.388-27.98-60-47-15.193-24.88,2.847-54.91,13-70,23.511-34.94,59.546-69.09,94-93C563.045,1143.95,580.291,1138.49,592,1128Z"/>
  <path id="Color_Fill_1" data-name="Color Fill 1" class="cls-9" d="M890,151c88.207-1.775,145.93,18.48,196,54q21.495,19,43,38c33.77,16.67,67.14,26.683,98,45,132,78.357,227.77,190.669,287,342,15.13,38.643,22.92,81.538,32,126,14.68,71.844,8.08,169.22-8,233-41.21,163.48-114.66,284.63-230,373-41.12,31.5-88.04,70.02-142,87v122q-20.505,36-41,72c-33.64,4.82-77.64,3-116,3H707c-18.572,0-41.661,1.67-57-2-1.333-1.67-2.667-3.33-4-5q0.5-91.995,1-184c-180.354-85.29-308.2-212.33-371-415-22.764-73.463-39.112-183.483-22-277,7.867-42.991,16.3-84.5,30-121,22.278-59.352,45.331-123.292,85-166-38.81-81.346,31.568-96.12,82-126l76-41,31-10c22.5-10.827,44.192-27.524,68-38,63.014-27.729,131.326-48.717,214-57C839.405,162.6,860.176,162.486,890,151ZM842,929c-17.537,1.4-38.511,1.782-52-4-28.746-12.322-47.187-66.123-30-105,19.634-44.412,104.143-65.751,161-41,47.485,20.671,64.357,101.576,16,134-6.74,4.519-62.149,17.676-63,19-9.249,14.384-.006,49.057,3,64,12.6,62.61,24.862,118.68,70,148,23.413,15.21,64.77,3.93,82-7,45.61-28.93,69.1-58.36,80-123,6.27-37.178-10.95-71.455-6-101,2.89-3.976,4.32-5.5,11-6,3.2,1.622,4.19,1.849,6,5,9.3,13.847,10.08,61.906,10,85,1.33,1.333,2.67,2.667,4,4,35.31-20.743,76.14-44.1,93-83,19.12-44.117,24.21-121.911,14-182-22.11-130.2-33.36-273.178-109-350,0.33-2.333.67-4.667,1-7,1.67-2,3.33-4,5-6,31.06,1.175,46.8,53.676,62,74-16.19-126.054-88.33-220.861-193-260-21.193-7.925-123.942-30.9-142-5-10.969,15.733.187,46.63,5,60,8.824,24.513,21.77,49.8,40,65,18.044,15.046,42.756,30.7,51,55l77,2c1.33,2,2.67,4,4,6v7c-10.68,13.122-71.468,2.321-95,6-69.937,10.935-142.165,7.07-204,24-13.9,3.806-45.8,18.972-53,5v-7c8.435-9.9,34.016-8.283,26-20l-26-21c-25.824-18.331-61.4-40.2-96-47-24.052-4.729-41.169,7.116-56,13-47.362,18.788-83.061,41.573-124,66-18.039,10.763-45.673,16.071-36,51,14.851,53.626,72.373,64.317,120,86v-2l6-33c7.545-23.852,23.594-46.422,40-62l7,1,6,5c-0.556,19.473-17.151,28.99-25,42-7,11.6-10.24,27.746-13,43-4.623,25.548-5.271,64.645-1,91q0.5,29.5,1,59,2,73.493,4,147c15.441,91.244,49.006,164.945,110,210-0.493-14.76-3.275-50.248,6-56,3.862-3.118,7.809-1.552,12,0,9.67,22.21-2.393,58.37,2,84,7.15,41.72,14.691,89.5,49,104,38.194,16.14,69.391-4.97,87-27C834.209,1082.45,842.59,1029.64,842,929Zm-1-705-68,10a770.124,770.124,0,0,0-134,45l-38,19c36.368,5.318,85.045,37.827,111,57,10.758,7.947,21.7,26.171,35,30,43.618-13.029,97.047-11.373,145-19l46-3v-1c-23.732-26.293-52.8-47.276-72-78C858.892,272.628,848.865,230.635,841,224Zm313,51c37.87,60.9,58.37,125.5,73,213,2.54,15.185-3.24,31.208-3,40q6.495,31.5,13,63c15.86,71.574,41.97,196.188,24,282-7.04,33.632-18.93,57.332-33,82q12,44.5,24,89c46.18,17.93,108.58,74.25,138,111l38,47v-2c21.31-20.87,35.43-58.24,48-87,42.32-96.81,77.81-250.86,44-387-44.76-180.218-132.3-301.553-264-394C1226.31,311.156,1191.25,286.89,1154,275ZM381,493l-36,58c-27.4,46.7-46.18,102.826-61,161-57.354,225.137,39.263,452.03,146,563,0.667-.33,1.333-0.67,2-1,2.612-10.38,11.461-15.43,17-23,25.144-34.35,53.955-70.63,87-97l45-33c-2.3-18.26,22.236-86.22,12-96q-13-16-26-32c-20.574-28.955-39.379-61.526-51-99-27.363-88.236-18.429-228.53-19-340-28.812-7.43-63.079-20.892-86-36Zm623,5c6.48,0.034,8.68.832,11,5,1.35,2.5,1.74,3.521,1,6-1.41,4.838-2.99,5.142-6,8h-5q-3.5-3-7-6,0.5-3.5,1-7C1000.67,502,1002.33,500,1004,498ZM672,529l8,1,6,5q-0.5,3.5-1,7l-5,6-8-1c-4.556-2.19-5.694-4.534-6-11Zm336,73,10,4c10.85,28.841,20.49,107.66,13,149l-6,5-8-1c-13.68-19.706-2.69-65.591-7-94-2.54-16.7-6.93-34.348-10-48C997.749,606.994,1003.41,605.311,1008,602ZM683,634c6.006,1.107,7.2,3.132,11,6,5.2,29.491,23.987,119.411,7,149l-2,1-8-1-4-2c-4.937-18.469,1.3-44.592-2-66q-3-23.5-6-47c-2.623-14.072-6.314-28.294-1-38ZM856,790c-31.4,11.68-56.3,5.861-73,31-24.307,36.594-4.772,89.207,43,88v-1c-5.891-13.533-11.414-40.214-27-44-2.929,4.635-4.655,6.532-12,7l-5-2c-1.73-4.387-4.687-10.99-2-17,2.927-5.373,6.6-5.1,13-7,36.974-10.95,41.883,44.854,59,62l8-1c21.534-10.853,30.987-92.941,81-42q-0.5,3.5-1,7l-5,6c-12.346-.086-15.541-4.665-26-6-10.668,7.092-16.194,23.417-21,36h4c17.507-4.682,32.682-7.521,43-19,23.634-26.292,4.572-74.449-18-88C902.019,791.006,880.2,789.457,856,790Zm354,182c-10.75,14.045-60.11,50.32-81,52-3.66,39.91-22.44,67.04-41,92v1h4c37.82-10.35,124.57-37.68,137-68C1231.08,1041.88,1214.07,975.79,1210,972Zm-351,55q-4,20.505-8,41,10-1.005,20-2Zm140,2c2.33,0.33,4.67.67,7,1,4.56,2.19,5.69,4.53,6,11q-3,3.495-6,7c-2.67-.33-5.33-0.67-8-1-2-1.67-4-3.33-6-5v-5C994.149,1032.87,995.747,1031.82,999,1029Zm-48,9c2,0.33,4,.67,6,1,1.667,1.67,3.333,3.33,5,5l-1,7-5,6c-2-.33-4-0.67-6-1-2-1.67-4-3.33-6-5C944.048,1042.09,946.016,1041.59,951,1038Zm-337,7c-0.754,27.98-16.144,50.88-12,75,9.752,12.71,31.816,18.1,52,20-10.742-23.31-14.115-48.64-20-79Q624,1053.005,614,1045Zm133,5c2.666,0.67,5.334,1.33,8,2,1.787,3.46,3.809,6.58,2,11l-5,6c-2.333-.33-4.667-0.67-7-1-2-1.67-4-3.33-6-5,0.667-3.33,1.333-6.67,2-10Zm40,1c4.735-.06,6.662.13,9,2l4,3v8c-1.721,2.58-2.111,3.41-5,5-5.986,2.66-9.548-.45-13-3-0.333-.67-0.667-1.33-1-2l1-7Zm457,13c-20.68,30.96-91.01,57.95-132,70l-51,9q-10.005,6.495-20,13c-17.17,10.4-37.46,15.03-65,15v1c1.2,2.23,1.094,2.49,3,4q67.995,0.495,136,1c18.76,0,42.42-3.54,49,9,7.6,14.28,2,50.21,2,69v172c73.22-34.23,145.92-81.17,194-141,16.06-19.98,47.67-41.34,55-68l-40-49c-26.01-32.47-60.58-58.8-95-83C1269.6,1078.69,1258.21,1066.74,1244,1064Zm-284,19c2.666,0.33,5.334.67,8,1,2,1.67,4,3.33,6,5l-1,7-5,6c-9.742.23-13.646-2.86-14-12Q957,1086.505,960,1083Zm-101,4c-6.553,3.7-16.1,5.85-20,12l-13,27q-13.5,16.995-27,34c46.273,8.96,80.946,14.33,122-6q-7-7.005-14-14c-2.976-6.99-24.221-46.74-29-52Q868.5,1087.505,859,1087Zm-92,9c2.333,0.33,4.667.67,7,1,2,1.67,4,3.33,6,5,0.277,10.18-2.621,13.38-13,13-2-1.67-4-3.33-6-5C760.835,1100.81,762.616,1100.09,767,1096Zm-177,44q-20,14.505-40,29c-32.776,26.16-63.45,62.67-87,98-5.739,8.61-14.325,14.37-17,26q20.5,19.5,41,39c46.167,36.91,98.906,79.76,160,100V1252c3.616-12.17,74.816-52.05,90-58v-1c-16.235-.97-38.584-7.78-51-15l-18-15q-23-4.005-46-8Zm350,26-16,9v2c8.87,0.32,25.667,1.99,31-2-1.333-2.33-2.667-4.67-4-7Q945.5,1166.995,940,1166Zm-160,9c1,0.67,2,1.33,3,2C781.2,1174.96,782.985,1176.29,780,1175Zm-11,74q102.491-.495,205-1v-1q-5.5-24.99-11-50-94.491-.495-189-1c-0.333.33-.667,0.67-1,1Q771,1222.995,769,1249Zm376-52H985q5,25.995,10,52h104q15-14.505,30-29C1136.69,1212.3,1145,1213.19,1145,1197Zm-397,52q1-19.5,2-39-32.5,18.495-65,37v2h63Zm396-15q-13.005,13.995-26,28,0.495,174.975,1,350c0.33-.67.67-1.33,1-2q12.495-19.5,25-39V1329Q1144.505,1281.51,1144,1234ZM667,1625h431q-0.495-177.975-1-356-214.978.495-430,1v355Zm88-337c2.333,0.33,4.667.67,7,1,2,1.67,4,3.33,6,5,0.141,6.92-.652,9.57-5,12-2.5,1.35-3.521,1.74-6,1-6.258-1.05-10.439-6.04-7-13Zm226,8c2.666,0.33,5.334.67,8,1,4.3,4.01,7.7,12.58,1,17-7.734,5.1-15.84-.85-16-10C976.149,1299.87,977.747,1298.82,981,1296Zm133,6c0.33,0.67.67,1.33,1,2,0.33-.67.67-1.33,1-2h-2Z"/>
  <path id="Color_Fill_8" data-name="Color Fill 8" class="cls-10" d="M921,156l62,11c99.73,30.56,173.81,98.183,205,198,5.78,18.507,31.24,76.889,22,101l-3-3c-21.11-10.276-32.14-37.043-46-55-11.98-15.53-41.42-27.954-50-42q-7.005-16-14-32-26.49-37.5-53-75c-24.74-32.4-68.748-63.869-108-81l-50-19,42,6Zm-39,2h4v1ZM579,307h47c38.99,10.394,82.779,63.277,105,93v1c-17.649,2.526-29.5,11.879-45,16-22.134,5.886-42.437,6.285-62,14l-43,21Q580,379.506,579,307Zm674,570c3.52,20.919-22.14,71.647-35,82,8.98,14.152,33.66,81.03,19,103q-11.505,9-23,18c-6.14,4.24-10.53,10-19,12,2.87-20.92-9.29-88.85-20-99-17.92,6.1-33.07,16.8-53,24V953C1159.14,952.629,1235.76,900.006,1253,877ZM558,961c13.247,9.768,23.521,21.888,40,29q25,8.5,50,17-3,21.5-6,43h-4q-8.5-2.505-17-5Q589.5,1003,558,961Zm301,109c26.856-.13,34.717,30.74,45,47q-47.495,5.505-95,11l3-3C821.609,1102.8,838.473,1082.25,859,1070Zm419,3c13.34,6.65,21.93,17.44,33,26,20.75,16.05,42.52,28.11,64,44l19,22c13,11.25,30.39,21.77,34,42,4.36,24.39-37.67,58.67-50,71q-32.49,31.5-65,63-28.995,19.995-58,40c-28.83,22.1-54.64,52.48-99,59V1282q16.995-24.495,34-49c17.44-27.79,30.03-56.88,47-86,12.2-20.94,29.06-46.82,34-73C1273.33,1073.67,1275.67,1073.33,1278,1073ZM532,1173c11.57,6.41,28.288,41.78,37,54,21.969,30.8,52.26,58.86,82,82q3.5,69.495,7,139c-70.694-18.84-192.464-104.14-222-162Q484,1229.51,532,1173Zm493,8q48,1.995,96,4c11.8,1.78,28.06-3.52,34,4,9.14,17.39-20.48,37.42-29,46q-6,7.005-12,14c-6.63,4.4-14.23,2.03-24,4-24.16,4.88-63.22,4.59-91,9H939c-23.432,3.58-50.049,8.07-73,5,1-1.33,2-2.67,3-4q17-10.995,34-22C940.648,1224.37,994.7,1204.67,1025,1181Z"/>
</svg>
